<svg height="300" viewBox="0 0 549 300" width="549" xmlns="http://www.w3.org/2000/svg"><g fill="none" transform="translate(-53 -202)"><g fill="#008b5d" transform="translate(55.485664 98.368982)"><path d="m120.598356 254.539988c1.642252.50758 2.996841 1.313583 4.063768 2.418011 1.219346 1.262203 2.93244 4.302428 5.139285 9.120675 2.211137 4.971742 5.263796 13.571992 9.157976 25.800753 3.894181 12.22876 6.935033 23.052528 9.122559 32.471304 0 0 3.352449 13.727626 3.503475 14.134586.151027.406961.489137.589275 1.096931.491817s.439057-1.13758.439057-1.13758l-2.392541-14.102474c-1.595027-9.401649-3.956438-19.745668-7.084234-31.032058-2.979671-11.282108-4.821572-18.927143-5.525702-22.935105s-.781414-6.770848-.231851-8.288658 1.695919-2.864999 3.439066-4.041568c1.747441-1.023075 3.740683-1.195513 5.979726-.517312 2.239044.6782 4.120657 1.806177 5.644838 3.383931 1.6766 1.735529 3.459464 4.624401 5.348591 8.666617 1.889127 4.042215 4.051964 9.932778 6.48851 17.671687 2.436546 7.738908 4.916027 17.012754 7.438444 27.821536 2.674835 10.966558 4.305282 18.988904 4.891343 24.06704.734185 5.082418 2.444061 10.653147 5.129627 16.712189 2.685567 6.059042 5.417287 11.122516 8.195162 15.190422 2.930294 4.225681 5.614786 7.600725 8.053476 10.125131 2.586815 2.528687 4.396512 3.73127 5.429091 3.607749 1.032579-.123522 2.1199-.935624 3.261961-2.436307 1.29448-1.342908 3.81045-6.638116 7.547909-15.885623 3.73746-9.247507 6.750398-15.295197 9.038815-18.14307 2.288417-2.847871 4.663777-5.233121 7.12608-7.15575 2.462302-1.922629 4.937486-3.384776 7.42555-4.386443 2.636188-.997385 5.213342-1.459683 7.731461-1.386894 2.518118.072789 4.382557.586792 5.593315 1.542007 1.215052 1.10871 1.763543 2.198151 1.645473 3.268325.030054 1.074456-.938121 3.500383-2.904528 7.277779-1.966406 3.777398-4.585419 10.680007-7.857037 20.707828-3.267324 10.181315-5.090972 16.416752-5.470943 18.706312-.227552 2.447335-.171737 4.442752.167448 5.986253.339185 1.5435.501264 4.692261.486239 9.446282-.010731 4.907516-.288732 8.196925-.834002 9.868229-.397145 1.675585-3.767514 8.173052-10.111107 19.4924-6.191176 11.477123-11.004149 19.313216-14.438921 23.508277-3.434773 4.195062-5.022281 8.290151-4.762524 12.285268.26405 4.148611 1.852637 13.320019 4.76576 27.514225l4.376126 21.52155-34.88335-1.008342-34.661163-1.00192.028978-6.900792c.023612-4.447034-.479799-9.216042-1.510233-14.307023-.88231-5.0867-2.875554-10.205512-5.979733-15.356437-2.956055-5.146644-6.972596-11.167474-12.049624-18.062492-5.072735-6.741523-9.165485-12.841242-12.278251-18.299154-2.960348-5.300137-6.192259-12.371874-9.695732-21.21521-3.351055-8.685561-6.0183751-16.73788-8.0019602-24.156956-1.9792915-7.265583-6.8126673-18.677959-14.5001273-34.237129-7.6831664-15.405677-12.1687705-24.967565-13.4568123-28.685666-1.2880418-3.718102-1.9578239-6.498115-2.0093463-8.340039-.0472288-1.68843.6461655-3.355452 2.0801829-5.001065 1.438311-1.49212 2.6737559-2.299941 3.7063347-2.423462 1.0325789-.123522 2.0737448.059944 3.1234978.550397 1.1978776.494734 6.9210734 9.32555 17.1695874 26.492446 0 0 14.6501763 24.751724 15.3727713 25.750342.722594.998618 6.467087 4.040349 4.524239-4.930417-1.295232-5.98051-1.295232-5.98051 0 0-.07299-2.609392-5.186516-16.100356-15.3405762-40.47289 0 0-13.0855286-29.365097-14.0869816-33.419996s-.7770192-5.888846-.7770192-5.888846c.2447269-1.833361.8704992-3.272283 1.8773168-4.316767 1.0111113-.89099 2.3968276-1.617782 4.157149-2.180376 1.9127396-.404819 3.3918391-.438748 4.4372985-.101789 1.1978777.494735 2.2540709 1.215428 3.1685799 2.16208.9188025 1.100146 2.0157843 3.279029 3.2909458 6.53665 1.427579 3.415396 5.586879 11.894266 12.4779 25.43661s11.22206 22.869711 12.993118 27.9821c0 0 2.210115 6.620434 2.878773 7.675007.668657 1.054572 3.626153 3.67066 2.836908-1.758431-.526164-3.619393-.526164-3.619393 0 0-.047229-1.688429-1.560679-8.173699-4.54035-19.455807-2.831547-11.277827-6.531448-24.497873-11.099704-39.66014 0 0-4.69072-14.974095-5.698613-19.259235-1.007894-4.285139-.647244-7.26542-.647244-7.26542 1.661571-4.092949 2.083069-4.770928 5.666403-5.702592s5.313165-.53658 5.313165-.53658z" transform="matrix(.58778525 .80901699 -.80901699 .58778525 377.780928 28.919294)"/><path d="m341.258968 15.6009971c1.642251.5075797 2.996841 1.3135833 4.063768 2.4180107 1.219345 1.2622028 2.93244 4.3024276 5.139284 9.1206743 2.211138 4.9717405 5.263797 13.5719901 9.157977 25.8007487s6.935033 23.0525251 9.122558 32.4712995c0 0 3.35245 13.7276239 3.503476 14.1345839.151026.406961.489137.5892748 1.096931.4918168.607793-.0974578.439057-1.1375798.439057-1.1375798l-2.392541-14.1024716c-1.595027-9.4016476-3.956439-19.7456654-7.084234-31.0320537-2.979672-11.2821066-4.821572-18.9271406-5.525703-22.9351021-.70413-4.0079615-.781414-6.770847-.23185-8.2886566.549563-1.5178096 1.695918-2.8649988 3.439065-4.0415674 1.747441-1.0230751 3.740683-1.1955125 5.979727-.5173123 2.239043.6782002 4.120656 1.806177 5.644838 3.3839305 1.676599 1.7355288 3.459463 4.6244008 5.34859 8.6666159 1.889128 4.0422152 4.051964 9.9327767 6.48851 17.6716843 2.436546 7.7389077 4.916028 17.0127518 7.438444 27.8215323 2.674835 10.9665559 4.305283 18.9889017 4.891343 24.0670367.734185 5.0824168 2.444061 10.6531458 5.129628 16.7121868 2.685566 6.059041 5.417287 11.122515 8.195162 15.19042 2.930293 4.225681 5.614785 7.600724 8.053476 10.12513 2.586815 2.528687 4.396512 3.73127 5.429091 3.607748s2.119899-.935624 3.261961-2.436307c1.29448-1.342907 3.810449-6.638114 7.547909-15.88562 3.737459-9.247506 6.750397-15.295195 9.038814-18.143067s4.663777-5.233122 7.12608-7.155751c2.462303-1.9226278 4.937486-3.3847748 7.42555-4.3864418 2.636189-.997385 5.213342-1.459682 7.731461-1.386893s4.382557.586791 5.593315 1.542006c1.215052 1.108709 1.763543 2.198151 1.645473 3.2683248.030055 1.074455-.938121 3.500382-2.904528 7.277779-1.966406 3.777397-4.585418 10.680005-7.857036 20.707825-3.267325 10.181313-5.090972 16.416749-5.470943 18.706309-.227553 2.447335-.171737 4.442752.167447 5.986252.339185 1.5435.501265 4.69226.48624 9.446281-.010732 4.907515-.288733 8.196924-.834002 9.868228-.397145 1.675584-3.767515 8.17305-10.111108 19.492397-6.191175 11.47712-11.004149 19.313212-14.438921 23.508273s-5.02228 8.29015-4.762524 12.285266c.26405 4.14861 1.852637 13.320017 4.765761 27.514221l4.376126 21.521547-34.88335-1.008342-34.661164-1.001919.028979-6.900792c.023612-4.447033-.479799-9.216041-1.510234-14.307021-.882309-5.086699-2.875554-10.20551-5.979733-15.356435-2.956054-5.146642-6.972596-11.167472-12.049624-18.062489-5.072734-6.741523-9.165485-12.84124-12.278251-18.29915-2.960348-5.300137-6.192258-12.371872-9.695731-21.215208-3.351055-8.685559-6.018375-16.737877-8.00196-24.156952-1.979292-7.265582-6.812668-18.677957-14.500127-34.237125-7.683167-15.405674-12.168771-24.9675618-13.456813-28.6856628s-1.957824-6.4981129-2.009346-8.3400368c-.047229-1.6884301.646165-3.3554516 2.080183-5.0010647 1.438311-1.4921193 2.673756-2.2999398 3.706335-2.4234615 1.032578-.1235217 2.073744.0599438 3.123497.5503967 1.197878.4947346 6.921074 9.3255484 17.169588 26.4924411 0 0 14.650176 24.751722 15.37277 25.75034.722595.998619 6.467087 4.040348 4.52424-4.930416-1.295232-5.98051-1.295232-5.98051 0 0-.07299-2.609392-5.186516-16.100353-15.340576-40.4728843 0 0-13.085529-29.3650933-14.086982-33.4199917-1.001453-4.0548983-.777019-5.8888452-.777019-5.8888452.244727-1.8333603.870499-3.2722822 1.877317-4.3167657 1.011111-.8909899 2.396827-1.6177819 4.157149-2.180376 1.912739-.4048188 3.391839-.4387485 4.437298-.1017893 1.197878.4947346 2.254071 1.2154279 3.16858 2.16208.918803 1.1001457 2.015784 3.2790286 3.290946 6.5366488 1.427579 3.4153955 5.586879 11.8942641 12.4779 25.436606 6.89102 13.5423417 11.22206 22.8697076 12.993117 27.9820964 0 0 2.210116 6.620433 2.878773 7.675006.668658 1.054572 3.626154 3.670659 2.836908-1.758431-.526164-3.619393-.526164-3.619393 0 0-.047229-1.68843-1.560679-8.1736978-4.54035-19.4558047-2.831546-11.2778246-6.531448-24.4978694-11.099703-39.660134 0 0-4.69072-14.9740928-5.698613-19.2592316-1.007894-4.2851387-.647244-7.2654196-.647244-7.2654196 1.66157-4.0929479 2.083068-4.7709269 5.666402-5.7025911 3.583334-.9316641 5.313166-.5365799 5.313166-.5365799z" transform="matrix(-.5 -.8660254 .8660254 -.5 445.1119 549.463569)"/></g><g fill="#e02020" transform="matrix(-.25881905 -.96592583 .96592583 -.25881905 155.313383 712.859924)"><path d="m120.789495 231.784807c1.645927.503117 3.002502 1.30542 4.069723 2.406911 1.219682 1.258847 2.929824 4.294297 5.130428 9.10635 2.204495 4.965527 5.24329 13.557117 9.116384 25.77477 3.873094 12.217652 6.894035 23.032686 9.062825 32.4451 0 0 3.325646 13.717911 3.476036 14.124444s.489047.587925 1.098973.488828c.609926-.099096.443482-1.138713.443482-1.138713l-2.361773-14.095336c-1.574516-9.39689-3.915225-19.734034-7.022126-31.011433-2.958333-11.273517-4.78523-18.91321-5.48069-22.919078-.695461-4.005868-.765513-6.768414-.210158-8.287637.555356-1.519223 1.708877-2.869447 3.460563-4.050672 1.755578-1.027751 3.755414-1.205568 5.999507-.533453 2.244093.672116 4.12844 1.794953 5.653042 3.368511 1.677062 1.730914 3.457597 4.61483 5.341605 8.651747s4.037569 9.921352 6.460686 17.653307c2.423116 7.731954 4.88515 16.998656 7.386102 27.800106 2.653413 10.958806 4.267186 18.976364 4.841321 24.052674.722703 5.080192 2.422777 10.646035 5.10022 16.697529 2.677444 6.051494 5.403874 11.107343 8.179292 15.167546 2.927878 4.21756 5.611499 7.585186 8.050862 10.10288 2.587932 2.521574 4.399941 3.719208 5.436028 3.592901s2.128945-.94131 3.278574-2.445009c1.302089-1.346343 3.840107-6.6481 7.614053-15.905271 3.773947-9.257172 6.812495-15.312719 9.115645-18.166642s4.692259-5.245481 7.167328-7.174675c2.475069-1.929193 4.961814-3.397962 7.460234-4.406307 2.646988-1.004464 5.233314-1.473706 7.758976-1.407728 2.525663.065979 4.394443.574916 5.606341 1.526814 1.21579 1.105372 1.763022 2.193279 1.641696 3.263721.027243 1.074323-.950467 3.502752-2.933129 7.285286s-4.628385 10.691895-7.937167 20.728083c-3.30489 10.189663-5.150999 16.429734-5.538327 18.720212-.234868 2.447834-.184275 4.443006.15178 5.985515.336055 1.54251.490121 4.690683.462199 9.44452-.024031 4.907311-.311778 8.197316-.863242 9.870014-.402895 1.676579-3.801189 8.182848-10.194881 19.518806-6.241232 11.493314-11.090183 19.342045-14.546854 23.546192s-5.060128 8.303334-4.810373 12.297558c.253647 4.1477 1.822325 13.314378 4.706034 27.500035l4.331401 21.508697-34.987857-.913996-34.765003-.908175.047721-6.900542c.035706-4.446887-.456361-9.214308-1.476201-14.302261-.871271-5.084073-2.856806-10.197254-5.956603-15.339543-2.951229-5.138407-6.963842-11.148094-12.037838-18.029059-5.070105-6.727491-9.158948-12.815856-12.266529-18.265094-2.95512-5.291883-6.177849-12.354547-9.668187-21.187992-3.337877-8.67609-5.9916296-16.720815-7.961257-24.134177-1.9657356-7.259887-6.7831192-18.658655-14.452151-34.196304-7.66514-15.384175-12.1386852-24.933484-13.4206357-28.647927-1.2819504-3.714443-1.9462765-6.492513-1.9965265-8.334211-.0392615-1.688222.6607705-3.357039 2.1036446-5.006451 1.4467658-1.495936 2.6881922-2.307058 3.7242791-2.433365 1.0360869-.126308 2.0799575.054335 3.1316116.541927 1.2002226.491473 6.9171401 9.306397 17.1507526 26.444773 0 0 14.6283023 24.710946 15.3504183 25.707563.722116.996618 6.476045 4.022675 4.551475-4.942412-1.283047-5.976725-1.283047-5.976725 0 0-.066161-2.609071-5.158936-16.085571-15.2783269-40.429498 0 0-13.0463739-29.328329-14.0399441-33.380328-.9935703-4.051999-.763489-5.886466-.763489-5.886466.2504351-1.833935.8820207-3.27448 1.8947568-4.321636 1.0166279-.893681 2.4085685-1.624184 4.175822-2.19151 1.9197136-.40997 3.4034516-.447897 4.451214-.11378 1.2002225.491473 2.2577144 1.209277 3.1724755 2.153412.918653 1.09761 2.013117 3.273425 3.2833917 6.527443 1.422736 3.411375 5.571901 11.878598 12.447498 25.40167 6.875596 13.523073 11.194735 22.838289 12.957417 27.945648 0 0 2.199013 6.614145 2.866875 7.66686s3.627378 3.660683 2.850382-1.766016c-.517997-3.617799-.517997-3.617799 0 0-.04281-1.688222-1.543381-8.169092-4.501714-19.442609-2.809765-11.269637-6.485303-24.479053-11.026615-39.628251 0 0-4.664661-14.960703-5.664069-19.242914s-.629593-7.263326-.629593-7.263326c1.677742-4.097245 2.102368-4.776332 5.699236-5.717638 3.596867-.941307 5.330949-.550918 5.330949-.550918z" transform="matrix(.58778525 .80901699 -.80901699 .58778525 359.30567 19.399385)"/><path d="m399.292799 15.8377824c1.645928.5031163 3.002503 1.30542 4.069724 2.406911 1.219682 1.2588469 2.929824 4.2942969 5.130428 9.1063501 2.204495 4.965528 5.24329 13.5571185 9.116384 25.7747717 3.873094 12.2176531 6.894035 23.0326873 9.062825 32.4451026 0 0 3.325646 13.7179112 3.476036 14.1244442s.489047.587925 1.098973.488828c.609926-.099096.443482-1.138713.443482-1.138713l-2.361774-14.0953361c-1.574515-9.396891-3.915224-19.734036-7.022125-31.011435-2.958333-11.273518-4.78523-18.9132112-5.48069-22.9190797-.695461-4.0058684-.765513-6.7684143-.210158-8.2876377.555356-1.5192234 1.708877-2.8694476 3.460563-4.0506728 1.755578-1.0277503 3.755414-1.2055678 5.999507-.5334524s4.12844 1.7949524 5.653042 3.368511c1.677062 1.7309145 3.457597 4.6148303 5.341605 8.6517475 1.884008 4.0369171 4.037569 9.9213532 6.460686 17.6533081 2.423116 7.731955 4.88515 16.9986576 7.386102 27.800108 2.653413 10.9588061 4.267186 18.9763651 4.841321 24.0526751.722703 5.080192 2.422776 10.646036 5.10022 16.69753 2.677443 6.051495 5.403873 11.107344 8.179291 15.167548 2.927878 4.217559 5.611499 7.585186 8.050862 10.10288 2.587932 2.521574 4.399941 3.719208 5.436028 3.592901s2.128945-.94131 3.278574-2.445009c1.302089-1.346343 3.840107-6.648101 7.614053-15.905273 3.773947-9.257171 6.812495-15.312719 9.115645-18.166642 2.303149-2.853923 4.692259-5.245482 7.167328-7.174675 2.475069-1.929194 4.961814-3.397963 7.460234-4.406308 2.646988-1.004464 5.233314-1.473707 7.758976-1.407728 2.525663.065978 4.394443.574916 5.606341 1.526814 1.21579 1.105372 1.763022 2.193279 1.641696 3.263721.027243 1.074324-.950467 3.502752-2.933129 7.285287-1.982662 3.782534-4.628385 10.691895-7.937167 20.728084-3.30489 10.189664-5.150999 16.429735-5.538328 18.720213-.234867 2.447834-.184274 4.443006.151781 5.985516s.490121 4.690684.462199 9.44452c-.024031 4.907312-.311778 8.197317-.863242 9.870015-.402895 1.676579-3.801189 8.182848-10.194881 19.518807-6.241232 11.493315-11.090183 19.342047-14.546854 23.546194-3.456671 4.204148-5.060128 8.303334-4.810373 12.297559.253647 4.1477 1.822325 13.314379 4.706034 27.500037l4.331401 21.508698-34.987856-.913996-34.765003-.908175.047721-6.900543c.035706-4.446887-.456361-9.214308-1.476201-14.302262-.871271-5.084073-2.856806-10.197254-5.956603-15.339543-2.951229-5.138408-6.963842-11.148095-12.037838-18.029061-5.070105-6.727491-9.158948-12.815856-12.266529-18.265095-2.95512-5.291883-6.17785-12.354547-9.668187-21.187993-3.337878-8.676091-5.99163-16.720817-7.961257-24.134179-1.965736-7.259887-6.783119-18.658656-14.452151-34.196307-7.66514-15.384176-12.138685-24.933485-13.420636-28.647928-1.28195-3.714444-1.946276-6.492514-1.996526-8.3342112-.039262-1.6882225.66077-3.3570396 2.103644-5.0064512 1.446766-1.4959369 2.688193-2.3070589 3.724279-2.433366 1.036087-.1263072 2.079958.0543352 3.131612.5419271 1.200223.491473 6.91714 9.3063983 17.150752 26.4447743 0 0 14.628303 24.710948 15.350419 25.707566.722116.996617 6.476045 4.022674 4.551475-4.942414-1.283047-5.976725-1.283047-5.976725 0 0-.066161-2.609071-5.158937-16.085571-15.278327-40.4294997 0 0-13.046374-29.3283306-14.039944-33.3803299s-.763489-5.8864661-.763489-5.8864661c.250435-1.8339351.88202-3.2744806 1.894757-4.3216364 1.016627-.893681 2.408568-1.6241845 4.175822-2.1915106 1.919713-.4099701 3.403451-.4478967 4.451214-.1137795 1.200222.491473 2.257714 1.2092771 3.172475 2.1534123.918653 1.0976099 2.013117 3.2734244 3.283392 6.5274433 1.422735 3.4113748 5.571901 11.8785987 12.447497 25.4016717 6.875597 13.5230729 11.194736 22.8382899 12.957418 27.9456489 0 0 2.199013 6.614146 2.866875 7.666861s3.627378 3.660683 2.850382-1.766016c-.517997-3.6178-.517997-3.6178 0 0-.04281-1.688223-1.543381-8.169093-4.501714-19.442611-2.809765-11.2696369-6.485303-24.4790545-11.026615-39.6282526 0 0-4.664661-14.9607041-5.664069-19.2429156-.999408-4.2822114-.629593-7.2633262-.629593-7.2633262 1.677742-4.0972459 2.102368-4.7763322 5.699236-5.7176389 3.596867-.9413066 5.330948-.5509173 5.330948-.5509173z" transform="matrix(-.5 -.8660254 .8660254 -.5 531.943921 599.8004)"/></g></g></svg>