<svg height="40" viewBox="0 0 154 40" width="154" xmlns="http://www.w3.org/2000/svg"><g fill="#fffffe" fill-rule="evenodd"><g transform="translate(63 6)"><path d="m82.9975016 15.6652874c-1.9330065 2.7585151 0 4.4062424 0 4.4062424 1.6851357 1.3668081 4.6466504.3538586 4.6466504.3538586v-6.3589091c-3.6801471.0732323-4.6466504 1.5988081-4.6466504 1.5988081zm-3.3021699-7.64047477s3.029616-1.86742425 7.6390931-.98863637c0 0 3.2898285.54924243 3.6243873 3.89962124.0185866 3.405303 0 10.6919192 0 10.6919192s-1.5675196 1.0186616-5.4995523 1.0984848c0 0-2.7528987.2563131-5.0390506-1.2083333 0 0-1.8958334-1.0618687-1.5612746-4.2474748 0 0 .4335883-2.6549646 3.2154821-3.7165404 0 0 2.8187696-1.0987777 5.6131536-1.1167929l.043567-1.3241869s-.1057206-3.11266663-4.5663563-2.02619189c0 0-2.0134493.58585859-2.620562.85447475z"/><path d="m77.833549 2.64137273c0 .95714646-.8931977 1.73296969-1.9948627 1.73296969-1.1016651 0-1.9949966-.77582323-1.9949966-1.73296969 0-.9574394.8933315-1.73326263 1.9949966-1.73326263 1.101665 0 1.9948627.77582323 1.9948627 1.73326263"/><path d="m74.0573464 22.4089444h3.5625311v-15.37278278h-3.5625311z"/><path d="m66.7527675 3.69180253 3.5686274-1.04956566v4.39393939l2.6764706.00234344v2.20663636h-2.6764706v9.76391924s.2106977 1.7698787 2.6764706 1.0741717v2.1969697s-1.6604526.6836969-3.4819395.1221515c-1.8214869-.5615455-2.7011536-2.1020606-2.7631585-3.0637475v-10.10576767h-1.8833432v-2.20927273h1.8833432z"/><path d="m51.6109325.02416667h3.6058007v7.70770202s2.0073529-1.31818182 5.3529411-.69570707c3.3455883.62247474 3.5686275 3.69823228 3.5686275 3.69823228v11.7291819h-3.6150196l-.0093677-11.3996364s-.5390114-3.47853536-5.2600081-1.44633839l.0123415 12.84597479h-3.6553154z"/><path d="m46.3817038 20.1190136v-10.93622219s-1.4433612-.84671212-3.9650425.12215152c0 0-2.2800556.82986867-1.8339771 7.37215147 0 0-.1570197 2.9046869 2.8706633 3.8813132 0 0 1.3670817.2440101 2.9283563-.439394m-.0495147 1.9298182s-5.1547337 1.9526667-8.1285899-2.050505c0 0-2.6021242-4.3939394-.5451079-9.0808081 0 0 1.3382353-3.44191921 5.2537631-4.02777779 0 0 4.5598137-.56154546 6.889384.97633333v14.65906056s.3965637 5.7226667-5.1794167 6.2596061c0 0-3.2960735.6104647-6.7655228-1.0252525l.9665032-2.1969697s8.0294118 3.7620909 7.508987-3.5136869"/><path d="m35.8493459 2.64137273c0 .95714646-.8931977 1.73296969-1.9948627 1.73296969-1.1016651 0-1.9950115-.77582323-1.9950115-1.73296969 0-.9574394.8933464-1.73326263 1.9950115-1.73326263 1.101665 0 1.9948627.77582323 1.9948627 1.73326263"/><path d="m32.0082092 22.4635758h3.7173202v-15.42741418h-3.7173202z"/><path d="m22.9628686 7.81712576s2.1560458-1.26926263 7.6823628-1.02525253l-.6444347 2.51450505s-2.1560457-.63477777-3.3455882.17077778l-.024683 12.98643434h-3.6676569z"/><path d="m.01452729 7.03616162 4.4361013 15.42741418h3.29592484l3.19689547-11.5950202 3.122549 11.5950202h3.2960735l4.4607843-15.42741418h-3.2712418l-2.8003317 11.91226258-3.122549-11.91226258h-3.02351964l-3.27124183 11.91226258-2.65163889-11.91226258z"/></g><g transform="translate(0 1)"><path d="m51.2590133 4.75898846c-2.9405199-2.49513846-6.3637984-3.93329231-10.229878-4.29619231-4.9562228-.46520769-9.2285624 1.17931539-12.9422387 4.27923847.0115862.01183846.1843395.16573846.2901007.26453846.1042759.10040769.2525199.21353077.4059629.34565384.1525517.13329231.3345146.26833846.5314801.4218.0999682.07439231.2043926.15243846.312382.23311539.1106631.07643846.2253369.15550769.3432785.23676923.11913.07892308.2450928.15536154.3723926.23603846.1268541.08111538.2635119.15156154.3989814.2299.1341326.08053077.2802971.14469231.4233422.21820769.0668435.03522308.8630238.45848462 2.2677772.67376923 1.313549.20169231 2.7309283.29245385 2.7829177.29523077.0066844.00029231.5016234.01593077.953634.01388462.3918514-.00131539.6782387-.00599231.7308223-.00438462 1.2233846-.36757692 3.3129124-.51738461 4.7702493-.57511538.3417931-.01359231.6856658-.01110769 1.0268647.00833077.6819523.03916923 1.3732626.0667923 2.0470451.17231538.1684456.02543077.3364456.05539231.5042971.08462308.1674058.03127692.3349602.06211538.5017719.09719231.3339204.06737692.6654642.14498461.9955225.22785384.3299098.08491539.6583343.17406923.9834907.27447693.3254536.09763076.6479364.20636923.9689337.31832307l-.0059416-.0019c.1895385.05539231.3679363.12130769.5466313.19263077.1781008.07176154.3539735.14878462.5267268.23063077.1727533.08286923.343427.16968462.5108329.26161539.1677029.09207692.3328806.18780769.494939.28894615.1620583.10026154.3209973.20593077.4774111.3154.1564138.10844615.3082228.22346923.458992.33980773l.2222176.1793307.2164244.1859077c.0730822.0610923.141114.1274462.2112254.1916077.0701114.0640154.1396287.1287616.205878.1967231.1363607.1319769.2661857.2705308.3949708.4102538.064764.0686923.1243289.1426462.1870133.2133847.0623873.071323.1237347.1432307.1816658.2183538l.1766154.2227385.1672573.2288769c.1127427.1517077.213305.3118923.318175.4690077.0965517.1622307.2006791.3197846.2881698.4869846l.1362122.2477308.1252201.253723c.0865995.1670539.1567109.3417077.2336552.5134385.0389178.0903231.0748647.1816692.1097719.2733077.0184191.0324461.0363926.0648923.0548117.0970461-.0160425-3.972023-1.652817-7.20436149-4.6780053-9.77111534"/><path d="m55.8635056 14.4005823c-.0320849-.0795077-.0649125-.1585769-.1001167-.2366231-.0802122-.1704154-.153443-.3436077-.2431618-.5089077l-.1293794-.2508-.1403713-.2445153c-.0900159-.1651539-.1966684-.3206616-.2954483-.4804077-.1073952-.1546308-.2098886-.312477-.3251565-.4615539l-.1706737-.2247846-.1792891-.2179154c-.0589709-.0736615-.1212096-.1438154-.1843396-.2136769-.0640212-.0694231-.1241803-.1417692-.1899841-.2088539-.130122-.1365076-.2612838-.2715538-.3989814-.4003153-.0668435-.0660616-.1371034-.1293462-.207809-.1914616-.070557-.0624077-.1393316-.1268615-.2127109-.1863461l-.2177613-.1803539-.2229602-.1739231c-.1515119-.1122461-.3037665-.22332303-.460923-.32826149-.1559682-.10537693-.3153528-.20695385-.4777083-.30326923-.1613156-.09748462-.3264933-.18897693-.4936021-.2771077-.1668117-.0876923-.3367427-.17041538-.5083077-.24860769-.171862-.07804615-.3459522-.15083077-.5219735-.21820769-.175427-.0665-.3559045-.12905385-.5326684-.17757692l-.0028223-.00073077-.0032679-.00087693c-.3201061-.10566923-.6416976-.20753846-.9668541-.29888461-.3241167-.09368462-.6510557-.17655385-.9794801-.2546-.3285729-.07658462-.6581857-.14732308-.9903236-.20826923-.1651777-.03200769-.3316923-.05933846-.4980584-.08710769-.166366-.02616154-.3330291-.05276154-.5002864-.07497693-.6678409-.09236923-1.340435-.15287692-2.0133263-.17947692-.3362971-.0133-.6728912-.0171-1.0088912-.01096154-.1538886.00277692-.3074801.0076-.460626.01578462 1.3658355.62232307 2.661114 1.34096154 3.6132626 2.57113842 1.3168169 1.7012308 1.9005835 3.5987462 1.8194801 5.738-.0901645 2.3669616-.0944722 4.7372847-.1350239 7.106-.0173793 1.0007154.0311936 2.0075693-.0622387 3.0017077-.1406685 1.4966154-1.0402334 2.6081154-2.1525093 3.5442308-.4493369.3788308-.9585358.6876538-1.4585252 1.0077308.0947692.0121307.2109284.0241154.346695.0339077.211671.0116923.4702811.0228.7684031.0119846.0741221-.0024846.1510664-.0048231.2300902-.0071616.0791724-.0051153.1607215-.0106692.2442016-.0159307.1671088-.0080385.3423873-.029377.525687-.0479385.7318621-.0806769 1.5810716-.2386692 2.4751406-.4719308.2250398-.0537846.449634-.1213077.6776446-.187223.1137825-.033177.2289018-.0665.3438726-.0999693.1149709-.037123.2302388-.0743923.3459523-.1121.4659735-.1479077.9276393-.3070692 1.3803926-.5008692.9017931-.3883308 1.7511512-.9008923 2.4345888-1.5137154.3420902-.3051692.6449655-.6309461.8986738-.9650538.2541538-.3336693.4622599-.6726.6304085-.9977923.3367427-.650677.5084562-1.2412847.6189708-1.6522693.0742705-.2908461.1259628-.4938538.1500265-.5887077.0047533-.0252846.010695-.0502769.0154483-.0752692.0001485-2.7764846.0001485-8.1758461.0001485-8.7633846-.0242122-.0605077-.04887-.1211615-.0735278-.1818154"/><path d="m32.1954101 7.52578308c-.9916605-.28441539-1.9035544-.81758462-1.9684669-.85602308-.1319045-.07877692-.2627692-.15346154-.3870981-.23063077-.122695-.07950769-.2419735-.15711538-.3575385-.2318-.1122971-.07936154-.2210291-.1558-.3257506-.22916923-.0806579-.05933846-.1584934-.11765385-.2329125-.17436154-.3668966-.26643846-1.4283714-1.10053846-1.4950663-1.1533-3.9716923-3.33903077-8.4604562-5.2003-13.7666419-4.40332307-6.16906103.92646923-10.61964989 4.08967692-12.84405307 9.97412311-.25623342.677423-.67511937 3.5348769-.67511937 4.2687153 0 0 .04649337-.2443692.19221221-.6543307.14512467-.4089385.39125729-.9837616.78192042-1.6228923.19622281-.3186154.42066844-.6560846.68432891-.996477.26559152-.3384923.5701008-.6788846.92348011-.9919461.35144828-.31496155.74597347-.60683078 1.16946419-.86683847.42349072-.26117692.86955968-.49326923 1.32424403-.71293846.90892308-.43670769 1.85914059-.79376154 2.77549072-1.04383077.9151618-.25299231 1.7952679-.40163077 2.55594695-.46433077.5032573-.04326154.953634-.0494 1.3300371-.03712308.4056658.00774616.8131141.04004616 1.2216022.10274616l.0001485.00014615c1.8196286-.16120769 3.5572626.15170769 5.2175066.8873 1.809825.8018 3.4751194 1.8506 5.1335809 2.91445384 2.8457507 1.8248769 5.7038303 1.8526462 8.5880531.0448692 1.8785994-1.17712304 3.6307904-2.28555381 5.71913-3.08837688-.0251035-.00043847-.1338356.00730769-.9791831.03288461-.5929761.02879231-3.5611246-.17348461-4.5853156-.46754615"/><path d="m.4234313 24.0507262c.20186737.4546846.53430239 1.0917692 1.05018568 1.7765.51320955.6844384 1.21699734 1.4128692 2.0994801 2.0256923.44012732.3072153.92258886.5856384 1.43446154.8225538.51246684.2396923 1.05122546.4280846 1.60602653.5932385.54826525.1688077 1.10900795.3078 1.66217506.4275.55450398.1191154 1.10425464.2187923 1.63811141.299323 1.06801058.1601847 2.07348538.2472924 2.93606368.2807616.4315119.0173923.8267798.0230923 1.1776339.0203154.2343979-.0013154.4484457-.0057.6400637-.0121308-3.4287745-.9586231-5.45056765-2.7469615-6.09701858-6.1922462-.34446684-1.8337923-.24687533-3.7067538-.19963925-5.562323.04872148-1.9040923.12804244-3.8115462.30554907-5.7070154.24019098-2.5612 1.57423876-4.34354617 3.85419626-5.38343078-.050801-.00643077-.1050185-.01271539-.1629496-.0187077-.4295809-.04691538-1.0519681-.07702307-1.7979416-.0266-.74537933.04808462-1.6127109.17816154-2.52000002.41127693-.90788329.23004615-1.85364456.56605384-2.76197348.98244615-.45275331.209-.90268435.43290769-1.32439257.68093077-.25207427.14776154-.49375066.30736154-.72309814.47573077-.40254642.31686156-.78741645.66587696-1.15223343 1.04953076-.36912466.4166846-.67244562.8479846-.9285305 1.2447923-.09001591.1407462-.17230769.2779846-.2482122.4120077-.30005305.5919231-.53311406 1.2167308-.76870027 1.8392v8.8105923c.03832361.1220385.0787268.2415923.12106101.3598308.04040318.1078615.09313528.2391077.1596817.3902308"/><path d="m55.9368997 23.3457969c-.0047533.0249923-.0106949.0499846-.0154482.0752693.0102493-.0404847.0155968-.0619693.0155968-.0619693s-.0086154.0375616-.0249549.1074231c-.0372839.1800615-.0785783.3574923-.1247746.532-.0007427.0051154-.0017825.0093538-.0029708.0141769-.1026419.4140539-.2627692 1.0086077-.5889655 1.6703923-.1623554.3304539-.3660053.6762539-.6161485 1.0184-.2495491.3427308-.5491565.6781539-.8896128.9939923-.6800212.6338693-1.5313103 1.1701077-2.4375597 1.5812385-.4524562.2043231-.9246684.3772231-1.3844031.5333154-.1151194.0396077-.2297931.0792154-.3438727.1188231-.1157136.0356615-.23113.0717615-.3462494.1072769-.2291989.0714692-.455427.1442538-.681061.2025692-.8977825.2529923-1.7508541.4674-2.4990557.5263-2.6655703.2100231-7.6281803-.1787461-10.9742175-2.1446615-.7239894-.4251616-1.3858886-.9451769-2.0800212-1.4165231-1.7533793-1.1910077-3.7126366-1.7418615-5.8137507-1.5109385-1.3410291.1473231-2.3444244.561377-3.8990557 1.5088923-1.6596498.9815693-3.8143872 2.0078616-5.5613793 2.7319077.2011247-.0197307.4214112-.0375615.6583342-.0508615.2917348-.019.6084244-.0266.9433847-.0306923.3345145.0008769.6877453.0052615 1.0522652.0283538.3645199.0182693.7400318.0574385 1.1202971.1023077.379374.0533462.7640955.1128308 1.1437666.1968693l.2851989.0613846.281931.0720538c.1882016.0447231.3720955.1024539.5553953.1569693.184191.0514461.3611034.120723.5387586.1794769.1764668.0616769.346992.1347538.5160318.1997923.1677029.0700077.3291671.1468846.4889974.2174769.1571565.0757077.3080742.1562385.4566154.2312154.290992.1606231.5628222.3178846.8016763.4811385.0607534.0397538.1201698.0786307.1781008.1161923.055703.0410692.110069.0812615.1632467.1199923.1057613.0783384.2060266.1527307.3006472.2228846.1791406.1511231.3391194.2787154.4643396.3911077.1018992.0960231.1856764.1746538.2486578.2341384.0454536.0418.0910557.084477.1357666.1274462.3247108.2225923 3.8839045 3.0993385 6.5518514 3.9644231 4.7265783 1.5328615 9.2752043 1.095423 13.6901433-1.1075539 2.1385464-1.0678 3.8987586-2.5813692 5.5055278-4.3081769 2.1992997-2.3636 2.2536658-5.2575923 2.1869708-8.1938231"/><path d="m27.1123777 32.3335423c-.0959575-.0675231-.1980053-.1392846-.3051034-.2147-.0537719-.0374154-.1088807-.0761461-.1656234-.1154615-.0583766-.0363923-.1183872-.0735154-.1798833-.1113693-.2416764-.1565307-.5160318-.3063384-.8089549-.4586307-.1491352-.0707385-.3007957-.1470308-.4588435-.2182077-.1601273-.0662077-.3220371-.1384077-.4900371-.2040308-.1697825-.0603615-.3398621-.1284692-.5164775-.1853231-.1776551-.0536384-.6148116-.230923-1.0788541-.3452154l-.5846578-.1439615c-.1803289-.0350769-.794695-.1669077-2.431618-.3211-1.2532414-.1180923-2.5357454.0574385-2.6305146.0672308-.8242547.0973384-2.3218462.3059-2.5005411.3253384-.176764.0242616-1.1773369.1189693-3.1622918 0-2.10571884-.1258384-4.57447216-.7168846-4.65943768-.7424615-.69754907-.2109-.58183554-.1658846-.85203183-.2629308-.46419098-.1543384-.92481697-.3313307-1.35796286-.5435461-.51424934-.2486077-.99775067-.5377-1.43698674-.8555846-.07337931-.0529077-.14586737-.1068385-.21672149-.1615-1.22026525-.8989923-2.19009018-2.0672-2.83282758-3.5866154-.01945889-.0435539-.03817507-.0862308-.0552573-.1271539-.19458885-.4606769-.23009018-.6325538-.26856233-.7548846 0 .5138769.11081167 1.6907077.20157029 2.4613769.03876923.3311847.10516711.7310616.11036605.7545923.29619098 1.3259077.80642971 2.5629539 1.59295491 3.6803 1.90622811 2.7094 4.46098673 4.602677 7.55272148 5.8427924 3.96040318 1.5889846 7.99255168 1.8941538 12.07059948.5853461 2.3564562-.7560538 4.3944403-2.1288769 6.3312679-3.6336769 0 0-.142748-.1281769-.3931883-.3522308-.1278939-.1090308-.2908435-.2323846-.4731035-.3783923"/></g></g></svg>