<svg height="40" viewBox="0 0 155 40" width="155" xmlns="http://www.w3.org/2000/svg" xmlns:xlink="http://www.w3.org/1999/xlink"><linearGradient id="a" x1="6.530249%" x2="27.787551%" y1="40.478109%" y2="40.478109%"><stop offset="0" stop-color="#60c168"/><stop offset=".1" stop-color="#6ac368"/><stop offset=".2" stop-color="#74c568"/><stop offset=".3" stop-color="#7ec768"/><stop offset=".4" stop-color="#88ca68"/><stop offset=".5" stop-color="#92cc68"/><stop offset=".6" stop-color="#95cc68"/><stop offset=".7" stop-color="#90cb68"/><stop offset=".8" stop-color="#87c968"/><stop offset=".9" stop-color="#79c365"/><stop offset="1" stop-color="#6dad4e"/></linearGradient><linearGradient id="b" x1="6.530249%" x2="22.21524%" y1="59.17736%" y2="59.17736%"><stop offset="0" stop-color="#f3db48"/><stop offset=".1" stop-color="#f0da49"/><stop offset=".2" stop-color="#e7d849"/><stop offset=".3" stop-color="#dfd64a"/><stop offset=".4" stop-color="#e5d84a"/><stop offset=".5" stop-color="#e7d949"/><stop offset=".6" stop-color="#cfd34c"/><stop offset=".7" stop-color="#b7cd4e"/><stop offset=".8" stop-color="#9fc850"/><stop offset=".9" stop-color="#86c353"/><stop offset="1" stop-color="#6ebe55"/></linearGradient><linearGradient id="c" x1="6.530249%" x2="15.308232%" y1="49.848466%" y2="49.848466%"><stop offset="0" stop-color="#ecd849"/><stop offset=".1" stop-color="#dad349"/><stop offset=".2" stop-color="#cace4a"/><stop offset=".3" stop-color="#bcca4a"/><stop offset=".4" stop-color="#b1c64a"/><stop offset=".5" stop-color="#a9c44a"/><stop offset=".6" stop-color="#9fc14a"/><stop offset=".7" stop-color="#90bc4a"/><stop offset=".8" stop-color="#82b84b"/><stop offset=".9" stop-color="#76b54b"/><stop offset="1" stop-color="#6eb24b"/></linearGradient><linearGradient id="d" x1="15.708462%" x2="37.951193%" y1="59.372093%" y2="59.372093%"><stop offset="0" stop-color="#38a04d"/><stop offset=".1" stop-color="#45a34c"/><stop offset=".2" stop-color="#57a84b"/><stop offset=".3" stop-color="#6cae4a"/><stop offset=".4" stop-color="#83b549"/><stop offset=".5" stop-color="#9bbd48"/><stop offset=".6" stop-color="#b3c447"/><stop offset=".7" stop-color="#c4c945"/><stop offset=".8" stop-color="#d3ce42"/><stop offset=".9" stop-color="#ded241"/><stop offset="1" stop-color="#e5d440"/></linearGradient><linearGradient id="e" x1="30.722%" x2="38.015944%" y1="50.012771%" y2="50.012771%"><stop offset="0" stop-color="#80c453"/><stop offset=".1" stop-color="#7fc453"/><stop offset=".2" stop-color="#7dc353"/><stop offset=".3" stop-color="#79c153"/><stop offset=".4" stop-color="#73be53"/><stop offset=".5" stop-color="#6bba53"/><stop offset=".6" stop-color="#60b452"/><stop offset=".7" stop-color="#54ae52"/><stop offset=".8" stop-color="#45a752"/><stop offset=".9" stop-color="#359f52"/><stop offset="1" stop-color="#229752"/></linearGradient><linearGradient id="f" x1="22.132681%" x2="37.942655%" y1="40.62396%" y2="40.62396%"><stop offset="0" stop-color="#309b4c"/><stop offset=".1" stop-color="#339d4d"/><stop offset=".2" stop-color="#37a04d"/><stop offset=".3" stop-color="#3ca34d"/><stop offset=".4" stop-color="#41a74d"/><stop offset=".5" stop-color="#48ab4e"/><stop offset=".6" stop-color="#4faf4e"/><stop offset=".7" stop-color="#56b44e"/><stop offset=".8" stop-color="#5cb84f"/><stop offset=".9" stop-color="#61bb4f"/><stop offset="1" stop-color="#63bd4f"/></linearGradient><mask id="g" fill="#fff"><path d="m13.566136.21437055c-6.14239041.9364608-10.57348361 4.13405582-12.78858436 10.08224465-.25487406.6848278-.67203527 3.5733373-.67203527 4.3153207.42295718-1.135392.83684887-2.2684086 1.65289169-3.2097684 1.84757683-2.13153211 4.25290428-3.27434683 6.93435768-3.8960808 1.41347356-.32764252 2.85815616-.48738124 4.31561966-.26128266 1.8114635-.1628563 3.541932.15365202 5.1951209.89711995 1.8019521.81057007 3.4598967 1.87054631 5.1111536 2.94581351 2.8333376 1.8448635 5.679456 1.8730701 8.5509875.045576 1.870612-1.19002371 3.7543022-2.3650534 5.8337178-3.17651421-.426078-.01113421-.8518589-.01024347-1.2777884-.00920428-.9951234.00222684-1.9900982.00445368-2.9865592-.14756532-2.230408-.33966746-4.0978992-1.3469418-5.7363753-2.84516033-.1420755-.0956057-.358607-.23619359-.425335-.28948931-3.3408564-2.85109858-7.0487909-4.63643112-11.3046675-4.63643112-.7818615 0-1.5824484.06027316-2.4025038.18542162z" fill="#fff" fill-rule="evenodd"/></mask><mask id="h" fill="#fff"><path d="m.3061461 2.55002969c.03878841.33476841.10462468.73901425.10982619.76291568.29514862 1.34011282.80296474 2.59070665 1.58601512 3.72016033 1.8982544 2.73871734 4.44194206 4.6527613 7.52019647 5.9064727 3.94319142 1.6058492 7.95816372 1.9144893 12.01861212.5917458 2.3460302-.7645487 4.3752141-2.1523159 6.3037859-3.67369356-1.3853854-1.35005938-3.0540303-2.17918646-4.9130504-2.65038598-1.3014181-.32957245-2.6285466-.34337886-3.9595391-.28369953-.173879.00786817-1.0969244.09827791-2.0037707.22624703-.4977104.07036817-1.0301965.1898753-1.3387204.2243171-.1752167.18304632-5.97252397-.15454275-8.55752649-.94210213-3.3355063-1.0158848-5.88915113-2.88791568-6.96645844-6.3699525 0 .51915083.11042066 1.70902613.20062973 2.48797506z" fill="#fff" fill-rule="evenodd"/></mask><mask id="i" fill="#fff"><path d="m8.69276574.38019596c-2.6814534.62173397-5.08678085 1.75445368-6.93435768 3.88598575-.81604282.94150831-1.22993451 2.0844715-1.65289169 3.21986342v8.90617577c1.07730731 3.4820368 3.63095214 5.3540677 6.96645844 6.3699525.64632494.1970012 1.29517632.3680226 1.94714862.5129157 1.95636267.4352731 6.52492447.6082244 6.61037787.4291864s-.5041008-.1039192-.5925265-.1261876c-3.6996121-.9357185-5.86715616-2.7458432-6.54023173-6.3853919-.34300252-1.8539193-.24565995-3.7473278-.19854912-5.6232186.04829975-1.92473274.12736273-3.8525831.30436273-5.76870543.2584408-2.79809976 1.78857682-4.67666271 4.40568012-5.68185867-.4697708-.07289192-.9379068-.10570071-1.4044081-.10570071-.9807078 0-1.95309318.14504157-2.91106296.36698337z" fill="#fff" fill-rule="evenodd"/></mask><mask id="j" fill="#fff"><path d="m35.8834433 5.50831354c-1.4231335.86995249-3.0008262 1.3050772-4.6012569 1.68438242-1.3899924.32942399-2.617995.47505938-4.2276398.42948337-3.0739446.30299882-5.8765189-.43913301-8.4184232-2.18260095-.6920982-.47476247-1.379738-.95561163-2.0709446-1.43185867-1.7459244-1.20383016-3.6966398-1.76083729-5.7888362-1.52761282-1.33500507.14904988-2.33399247.5675475-3.88181363 1.52523753-2.06737784 1.24183491-4.9071058 2.55359263-6.75616877 3.25.45520655.00074228 1.67042821-.27969121 2.6346398-.33179929 1.33099244-.05967933 2.65812091-.04587292 3.95953904.28369953 1.85902015.47119952 3.52766496 1.3003266 4.91305036 2.65038598.296932.19418056.3586071.25133606.5278791.39162706 1.816665 1.506829 3.7464257 2.8527316 5.9957078 3.6159442 4.6920605 1.5920428 9.2355063 1.1073337 13.630932-1.1196556 2.1296474-1.0789786 3.8819622-2.6092636 5.4819471-4.35495841 2.1896877-2.38940024 2.243932-5.31472684 2.1775013-8.28295725-.4418313 2.29572447-1.5383098 4.15469121-3.5761134 5.4006829z" fill="#fff" fill-rule="evenodd"/></mask><mask id="k" fill="#fff"><path d="m.13761713.08847981c1.56015617.69328979 3.07632242 1.43868765 4.15199496 2.84961401 1.3112267 1.72001188 1.89245844 3.63821259 1.81161209 5.80062352-.08946599 2.39266626-.09392443 4.78845016-.13434761 7.18289786-.01723929 1.0120249.03120907 2.0296912-.06167506 3.0347387-.14014358 1.5129157-1.03628967 2.6362827-2.14346851 3.58269-.55923678.4784739-1.21239799.8469418-1.82320403 1.2649941 1.43933249.1523159 2.83779597-.1002078 4.22778841-.4296318 1.60043073-.3793052 3.17812343-.81443 4.60125692-1.6843824 2.0378035-1.2459917 3.1342821-3.1049585 3.5761134-5.4006829.0001486-2.9704573.0001486-8.91137178.0001486-8.91137178s-.9453376-1.88450119-1.5888388-2.73396674c-1.2040756-1.59026129-2.80628969-2.59323041-4.65015115-3.2706354-2.22639547-.81888361-4.50168514-1.3222981-6.85901008-1.3222981-.36737531 0-.73683123.01232186-1.10821914.03741093z" fill="#fff" fill-rule="evenodd"/></mask><mask id="l" fill="#fff"><path d="m.05632494 4.65795724c1.63847607 1.49821853 3.50596725 2.50549288 5.73637531 2.84516034.99646096.152019 1.99143577.14979216 2.9865592.14756532.42592947-.00103919.85171032-.00192993 1.27778845.00920427 1.2232468-.37307007 2.4797833-.53741092 3.7531133-.59397268 2.7551663-.18660926 5.3938186.33847981 7.9672292 1.28488717 1.8438615.67740499 3.4460756 1.68037414 4.6501512 3.27063544.6435012.8494655 1.068539 1.8176959 1.5888388 2.7339667-.0160504-4.015291-1.6460555-7.28251188-4.6578791-9.87692993-2.9278565-2.52241686-6.3364811-3.97624703-10.1860454-4.34308195-.5607229-.05344418-1.1116373-.0797209-1.6543778-.0797209-4.3454912.00029691-8.11926198 1.68646081-11.46175316 4.60228622z" fill="#fff" fill-rule="evenodd"/></mask><g fill="none" fill-rule="nonzero"><g fill="#008b5d" transform="translate(63.307305 4.951306)"><path d="m82.9538514 15.8619359c-1.9319899 2.7958729 0 4.4660035 0 4.4660035 1.6842494 1.3855404 4.6442065.3588183 4.6442065.3588183v-6.4455166c-3.6782116.074228-4.6442065 1.6206948-4.6442065 1.6206948zm-3.3004333-7.74450716s3.0280227-1.89281473 7.6350756-1.00207838c0 0 3.2880982.55671021 3.6224811 3.95264254.0185768 3.4516033 0 10.8372921 0 10.8372921s-1.5666952 1.0325119-5.4966599 1.1134205c0 0-2.7514509.2597981-5.0364005-1.2247625 0 0-1.8948363-1.0763064-1.5604534-4.3052257 0 0 .4333602-2.6910629 3.2137909-3.7670724 0 0 2.8172871-1.1138658 5.6102015-1.1319774l.0435441-1.3421913s-.105665-3.15483962-4.5639547-2.05374105c0 0-2.0123904.59397269-2.6191839.86609265z"/><path d="m77.7926146 2.66077791c0 .97030879-.892728 1.75668052-1.9938136 1.75668052s-1.9939622-.78637173-1.9939622-1.75668052.8928766-1.75668052 1.9939622-1.75668052 1.9938136.78637173 1.9938136 1.75668052z"/><path d="m74.018398 7.11535036h3.5606574v15.58179924h-3.5606574z"/><path d="m66.7177053 3.72565321 3.5667506-1.06398456v4.45368171l2.675063.00237529v2.23678741h-2.675063v9.89667454s.2105869 1.7937946 2.675063 1.0886283v2.2268409s-1.6595794.6929928-3.4801083.1238123c-1.820529-.5691805-2.699733-2.1304929-2.7617053-3.1052553v-10.2433195h-1.8823527v-2.23916271h1.8823527z"/><path d="m51.5838338.00801663h3.6039042v7.8125s2.0062973-1.33610452 5.350126-.70516627c3.3438287.63093824 3.5667506 3.74851544 3.5667506 3.74851544v11.8888064h-3.6131184l-.0093627-11.5547803s-.538728-3.52583133-5.2572418-1.46600354l.012335 13.02078384h-3.6533929z"/><path d="m46.3573552 20.3760392v-11.08476842s-1.4426021-.85837292-3.9629572.12381236c0 0-2.2788564.84115206-1.8330126 7.47223876 0 0-.156937 2.9443289 2.8691536 3.9340855 0 0 1.3663628.2474762 2.9268162-.4453682zm-.0494887 1.956057s-5.1520227 1.9793646-8.1243149-2.0783848c0 0-2.6007556-4.4536817-.5448211-9.2042755 0 0 1.3375315-3.48871737 5.251-4.0825416 0 0 4.5574156-.56903207 6.8857607.98975653v14.85822447s.3963551 5.8006235-5.1766927 6.3448634c0 0-3.2943401.6186164-6.7619647-1.0391924l.9659949-2.2268408s8.0251889 3.8130938 7.5050378-3.5616093z"/><path d="m35.8305365 2.66077791c0 .97030879-.8927279 1.75668052-1.9938136 1.75668052-1.1010856 0-1.9939622-.78637173-1.9939622-1.75668052s.8928766-1.75668052 1.9939622-1.75668052c1.1010857 0 1.9938136.78637173 1.9938136 1.75668052z"/><path d="m31.9913753 7.11535036h3.7153653v15.63732184h-3.7153653z"/><path d="m22.9508514 7.90706651s2.1549118-1.28652019 7.6783224-1.0391924l-.6440957 2.54854513s-2.1549119-.6432601-3.3438287.17324822l-.0246701 13.16300474h-3.6657279z"/><path d="m.01456423 7.11535036 4.43376826 15.63732184h3.29419144l3.19521407-11.7526722 3.1209068 11.7526722h3.2943401l4.4584383-15.63732184h-3.2695214l-2.798859 12.07437644-3.1209068-12.07437644h-3.02192945l-3.26952141 12.07437644-2.65024433-12.07437644z"/></g><path d="m-11.4433249 81.6345012h176.8513849v-124.851544h-176.8513849z" fill="url(#a)" mask="url(#g)" transform="translate(.443325 .349169)"/><path d="m-11.4433249 58.1784442h176.8513849v-124.851544h-176.8513849z" fill="url(#b)" mask="url(#h)" transform="translate(.443325 23.805226)"/><path d="m-11.4433249 74.5086105h176.8513849v-124.851544h-176.8513849z" fill="url(#c)" mask="url(#i)" transform="translate(.443325 7.475059)"/><path d="m-27.6423174 58.1784442h176.8513854v-124.851544h-176.8513854z" fill="url(#d)" mask="url(#j)" transform="translate(16.642317 23.805226)"/><path d="m-52.7581864 74.3601544h176.8513854v-124.8515439h-176.8513854z" fill="url(#e)" mask="url(#k)" transform="translate(41.758186 7.623515)"/><path d="m-39.0856423 81.3375891h176.8513853v-124.851544h-176.8513853z" fill="url(#f)" mask="url(#l)" transform="translate(28.085642 .646081)"/></g></svg>